<?xml version="1.0" standalone="no"?>
<!DOCTYPE svg PUBLIC "-//W3C//DTD SVG 20010904//EN"
 "http://www.w3.org/TR/2001/REC-SVG-20010904/DTD/svg10.dtd">
<svg version="1.0" xmlns="http://www.w3.org/2000/svg"
 width="500.000000pt" height="500.000000pt" viewBox="0 0 500.000000 500.000000"
 preserveAspectRatio="xMidYMid meet">

<g transform="translate(0.000000,500.000000) scale(0.100000,-0.100000)"
fill="#000000" stroke="none">
<path d="M2362 4510 c-190 -19 -418 -71 -548 -125 l-34 -14 0 -450 c0 -248 -1
-454 -2 -458 -2 -5 167 -9 375 -11 l377 -2 0 -175 0 -175 -390 0 -390 0 0 -95
0 -95 333 -2 332 -3 0 -165 0 -165 -332 -3 -333 -2 0 -105 0 -105 600 0 600 0
0 -180 0 -180 -690 0 -690 0 0 180 0 180 40 0 40 0 0 50 c0 38 -4 50 -15 50
-10 0 -15 -10 -15 -31 0 -26 -3 -30 -22 -27 -17 2 -24 11 -26 31 -5 38 -32 36
-32 -3 0 -23 -4 -30 -20 -30 -16 0 -20 7 -20 30 0 20 -5 30 -15 30 -11 0 -15
-12 -15 -50 l0 -50 35 0 35 0 0 -180 0 -180 -470 -2 -470 -3 41 -120 c101
-295 261 -548 495 -781 l121 -122 939 4 c516 3 1094 7 1284 10 l344 6 121 122
c227 229 411 538 498 833 l16 53 -320 0 -319 0 0 -260 0 -260 -620 2 -621 3
-2 173 -2 172 388 0 387 0 0 85 0 85 -180 0 -180 0 0 180 0 180 180 0 180 0 0
105 0 105 -395 0 -395 0 0 175 0 175 630 0 630 0 0 -280 0 -280 349 0 349 0 7
71 c8 82 0 242 -20 381 -73 502 -354 983 -754 1287 -225 172 -507 306 -767
367 -175 40 -454 60 -622 44z m-44 -3402 c-9 -7 -19 -26 -21 -43 l-4 -30 -2
33 c0 17 -5 32 -11 32 -5 0 -10 5 -10 10 0 6 14 10 32 10 27 0 30 -2 16 -12z
m112 0 l-25 -10 25 -11 c25 -10 25 -10 3 -14 -13 -3 -23 -8 -23 -13 0 -5 10
-11 23 -13 19 -4 18 -4 -5 -6 -26 -1 -28 2 -28 39 0 37 2 40 28 39 l27 0 -25
-11z m155 2 c4 -6 -4 -9 -17 -7 -19 2 -23 -3 -23 -23 0 -20 4 -25 23 -23 13 2
21 -1 17 -7 -16 -25 -65 -2 -65 30 0 32 49 55 65 30z m95 -5 c0 -8 7 -15 15
-15 8 0 15 7 15 15 0 8 5 15 10 15 6 0 10 -18 10 -40 0 -22 -4 -40 -10 -40 -5
0 -10 7 -10 15 0 8 -7 15 -15 15 -8 0 -15 -7 -15 -15 0 -8 -4 -15 -10 -15 -5
0 -10 18 -10 40 0 22 5 40 10 40 6 0 10 -7 10 -15z"/>
<path d="M1238 4044 c-320 -279 -542 -635 -643 -1035 -47 -184 -75 -452 -60
-583 l7 -66 367 0 368 0 7 856 c4 471 5 859 2 861 -2 3 -24 -12 -48 -33z"/>
<path d="M1495 3605 c-56 -56 -16 -145 65 -145 81 0 120 85 65 144 -33 36 -95
37 -130 1z m108 -36 c19 -27 10 -58 -19 -70 -56 -21 -108 36 -68 75 22 23 70
20 87 -5z"/>
<path d="M1470 3370 c0 -47 3 -60 15 -60 8 0 15 9 15 20 0 18 7 20 75 20 68 0
75 2 75 20 0 18 -7 20 -75 20 -68 0 -75 2 -75 20 0 11 -7 20 -15 20 -12 0 -15
-13 -15 -60z"/>
<path d="M1472 3253 c3 -14 12 -17 45 -15 23 2 44 -1 47 -7 3 -5 -17 -23 -44
-41 -31 -20 -50 -39 -50 -51 0 -17 8 -19 90 -19 83 0 90 1 90 20 0 18 -7 20
-57 20 l-58 0 57 38 c34 21 58 44 58 55 0 15 -11 17 -91 17 -81 0 -90 -2 -87
-17z"/>
<path d="M1547 3057 c-98 -40 -99 -57 -7 -96 102 -44 110 -45 110 -23 0 11 -9
22 -20 25 -15 4 -20 14 -20 41 0 25 6 38 20 46 22 12 27 41 8 39 -7 -1 -48
-15 -91 -32z m29 -64 c-3 -4 -16 -1 -28 4 l-23 11 25 10 c19 7 26 6 28 -5 2
-8 1 -17 -2 -20z"/>
<path d="M1470 2881 c0 -10 14 -28 31 -39 l31 -19 -31 -19 c-20 -12 -31 -26
-31 -41 0 -23 1 -23 52 12 37 25 64 35 90 35 27 0 38 4 38 15 0 11 -11 15 -41
15 -29 0 -53 9 -84 30 -51 35 -55 36 -55 11z"/>
<path d="M1470 2695 c0 -12 17 -15 90 -15 73 0 90 3 90 15 0 12 -17 15 -90 15
-73 0 -90 -3 -90 -15z"/>
<path d="M1612 2615 c-30 -25 -34 -26 -51 -11 -24 22 -68 21 -81 -3 -5 -11
-10 -38 -10 -60 l0 -41 90 0 c83 0 90 1 90 20 0 16 -7 20 -37 20 l-38 0 39 33
c25 21 37 39 35 51 -4 17 -7 16 -37 -9z m-64 -58 c3 -12 -3 -17 -22 -17 -25 0
-35 18 -19 34 12 12 38 2 41 -17z"/>
<path d="M1800 2275 c0 -10 10 -15 30 -15 23 0 30 -4 30 -20 0 -16 -7 -20 -30
-20 -23 0 -30 -4 -30 -20 0 -16 7 -20 30 -20 23 0 30 -4 30 -20 0 -16 -7 -20
-30 -20 -20 0 -30 -5 -30 -15 0 -11 12 -15 50 -15 l50 0 0 90 0 90 -50 0 c-38
0 -50 -4 -50 -15z"/>
<path d="M1940 2200 c0 -83 1 -90 20 -90 18 0 20 7 20 58 l1 57 36 -57 c23
-37 43 -58 54 -58 17 0 19 9 19 90 0 73 -3 90 -15 90 -15 0 -20 -25 -15 -77 3
-37 -16 -27 -50 27 -20 31 -39 50 -51 50 -17 0 -19 -8 -19 -90z"/>
<path d="M2140 2265 c0 -9 9 -15 25 -15 24 0 25 -2 25 -75 0 -59 3 -75 15 -75
11 0 15 17 17 73 3 66 5 72 26 75 12 2 22 10 22 18 0 11 -15 14 -65 14 -51 0
-65 -3 -65 -15z"/>
<path d="M2300 2190 l0 -90 50 0 c38 0 50 4 50 15 0 10 -10 15 -30 15 -25 0
-30 4 -30 25 0 21 5 25 30 25 20 0 30 5 30 15 0 10 -10 15 -30 15 -23 0 -30 4
-30 20 0 16 7 20 30 20 20 0 30 5 30 15 0 11 -12 15 -50 15 l-50 0 0 -90z"/>
<path d="M2440 2190 c0 -83 1 -90 20 -90 16 0 20 7 20 38 l0 37 33 -39 c21
-25 39 -37 51 -35 17 4 16 7 -9 37 -25 30 -26 34 -11 51 22 24 21 68 -3 81
-11 5 -38 10 -60 10 l-41 0 0 -90z m75 35 c0 -11 -8 -21 -17 -23 -14 -3 -18 3
-18 23 0 20 4 26 18 23 9 -2 17 -12 17 -23z"/>
<path d="M2620 2190 c0 -73 3 -90 15 -90 10 0 15 11 15 35 0 32 3 35 28 35 16
0 36 8 45 18 39 43 4 92 -65 92 l-38 0 0 -90z m75 35 c0 -13 -8 -21 -22 -23
-19 -3 -23 1 -23 23 0 22 4 26 23 23 14 -2 22 -10 22 -23z"/>
<path d="M2780 2190 c0 -73 3 -90 15 -90 10 0 15 11 15 35 0 44 9 44 39 0 16
-24 31 -35 48 -35 l24 0 -29 36 c-29 35 -30 36 -11 55 24 24 24 44 -1 69 -13
13 -33 20 -60 20 l-40 0 0 -90z m75 35 c0 -13 -8 -21 -22 -23 -19 -3 -23 1
-23 23 0 22 4 26 23 23 14 -2 22 -10 22 -23z"/>
<path d="M3055 2264 c-23 -24 -15 -56 22 -79 18 -11 32 -26 33 -33 0 -19 -25
-25 -49 -12 -17 9 -22 8 -28 -6 -7 -20 13 -34 50 -34 44 0 67 17 67 50 0 24
-8 35 -40 55 -44 28 -44 50 0 41 19 -3 30 -1 33 9 11 27 -62 35 -88 9z"/>
<path d="M3190 2190 l0 -90 50 0 c38 0 50 4 50 15 0 10 -10 15 -31 15 -26 0
-30 3 -27 23 2 16 11 23 31 25 38 5 36 32 -3 32 -23 0 -30 4 -30 20 0 16 7 20
30 20 20 0 30 5 30 15 0 11 -12 15 -50 15 l-50 0 0 -90z"/>
<path d="M2005 930 l-680 -5 95 -64 c589 -394 1339 -446 1978 -136 118 57 263
143 331 196 23 19 13 19 -510 17 -294 -2 -840 -5 -1214 -8z"/>
</g>
</svg>
